<svg width="241" height="28" viewBox="0 0 241 28" fill="none" xmlns="http://www.w3.org/2000/svg">
<path d="M7.99354 12.31H7.48354C7.33354 11.41 7.06354 10.96 6.40354 10.96H3.85354V14.29C3.85354 15.1 4.30354 15.31 5.36854 15.31H6.86854C8.18854 15.31 8.44354 14.875 9.40354 13.3H9.82354L9.37354 16H0.883535V15.415C1.88854 15.385 2.41354 15.235 2.41354 14.32V7.15C2.41354 6.235 1.88854 6.085 0.883535 6.055V5.47H9.29854V7.975H8.89354C8.35354 6.67 7.93354 6.16 6.71854 6.16H3.85354V10.27H6.40354C7.06354 10.27 7.33354 9.82 7.48354 8.92H7.99354V12.31ZM11.6938 14.875L13.9288 11.995L11.8588 9.175C11.6038 8.83 11.4088 8.65 10.8538 8.575V8.05H14.3338V8.575C13.5388 8.665 13.4188 8.725 13.4188 8.98C13.4188 9.1 13.5538 9.295 13.6738 9.46L14.9638 11.23L16.2088 9.46C16.3438 9.295 16.4188 9.175 16.4188 9.025C16.4188 8.755 16.2688 8.725 15.5638 8.575V8.05H18.3688V8.575C17.9038 8.695 17.6038 8.83 17.3188 9.175L15.3538 11.77L17.6188 14.875C17.8888 15.22 18.0838 15.4 18.6238 15.475V16H15.1588V15.475C15.9538 15.385 16.0738 15.325 16.0738 15.07C16.0738 14.95 15.9388 14.755 15.8188 14.59L14.3188 12.535L12.8488 14.59C12.7438 14.755 12.6538 14.875 12.6538 15.025C12.6538 15.295 12.7888 15.325 13.5088 15.475V16H10.6438V15.475C11.1088 15.355 11.4538 15.16 11.6938 14.875ZM21.6087 15.325V17.575C21.6087 18.265 22.1037 18.34 22.7787 18.43V18.955H19.0587V18.43C19.7337 18.34 20.2287 18.265 20.2287 17.575V9.49L19.1337 8.965V8.65L21.2487 7.9H21.6087V9.205C22.2387 8.41 23.0637 7.9 24.1737 7.9C26.2137 7.9 27.2787 9.58 27.2787 11.65C27.2787 14.425 25.5537 16.15 23.5737 16.15C22.6437 16.15 21.9387 15.805 21.6087 15.325ZM23.5437 15.46C24.9387 15.46 25.8987 14.215 25.8987 12.28C25.8987 10.585 25.2387 8.905 23.5587 8.905C22.8237 8.905 22.0587 9.16 21.6087 9.64V13.375C21.6087 14.755 22.3737 15.46 23.5437 15.46ZM30.9133 4.585V14.62C30.9133 15.31 31.4083 15.385 32.0683 15.475V16H28.3633V15.475C29.0383 15.385 29.5333 15.31 29.5333 14.62V6.175L28.4383 5.65V5.335L30.5383 4.585H30.9133ZM37.0104 15.37C38.4204 15.37 39.1254 14.08 39.1254 12.145C39.1254 10.27 38.2554 8.68 36.7404 8.68C35.3304 8.68 34.6254 9.97 34.6254 11.905C34.6254 13.78 35.4954 15.37 37.0104 15.37ZM36.8304 16.15C34.6104 16.15 33.1854 14.485 33.1854 12.175C33.1854 9.595 34.8804 7.9 36.9204 7.9C39.1404 7.9 40.5654 9.565 40.5654 11.875C40.5654 14.455 38.8704 16.15 36.8304 16.15ZM44.3044 7.9V10.27C45.2794 8.53 45.6394 7.9 46.5694 7.9C46.8244 7.9 47.0194 7.99 47.1244 8.11V9.445H46.8094C45.8794 9.445 45.2794 9.58 44.3044 10.75V14.56C44.3044 15.31 44.6794 15.355 45.7594 15.475V16H41.7694V15.475C42.4294 15.385 42.9244 15.31 42.9244 14.62V9.49L41.8444 8.965V8.65L43.9144 7.9H44.3044ZM51.4778 7.9C53.4578 7.9 54.4928 9.28 54.4928 11.245V11.71H49.1228C49.1228 13.675 50.1728 15.01 51.8678 15.01C52.9928 15.01 53.6978 14.455 54.2528 13.72L54.5078 13.855C54.1478 15.19 53.0378 16.15 51.3578 16.15C49.1678 16.15 47.8778 14.425 47.8778 12.28C47.8778 9.655 49.4078 7.9 51.4778 7.9ZM51.2528 8.635C50.0678 8.635 49.3028 9.745 49.1828 10.99H53.1128C53.1128 9.55 52.4828 8.635 51.2528 8.635ZM62.9089 15.37C64.3189 15.37 65.0239 14.08 65.0239 12.145C65.0239 10.27 64.1539 8.68 62.6389 8.68C61.2289 8.68 60.5239 9.97 60.5239 11.905C60.5239 13.78 61.3939 15.37 62.9089 15.37ZM62.7289 16.15C60.5089 16.15 59.0839 14.485 59.0839 12.175C59.0839 9.595 60.7789 7.9 62.8189 7.9C65.0389 7.9 66.4639 9.565 66.4639 11.875C66.4639 14.455 64.7689 16.15 62.7289 16.15ZM73.4429 16.15V14.68C72.6929 15.4 71.8829 16.15 70.6529 16.15C69.3329 16.15 68.5379 15.445 68.5379 13.69V9.565C68.5379 9.025 68.3579 8.875 67.6379 8.785L67.3979 8.755V8.245L69.6929 7.9H69.9179V13.48C69.9179 14.575 70.3529 15.04 71.3129 15.04C72.1079 15.04 72.8579 14.695 73.4429 14.245V9.565C73.4429 9.025 73.2629 8.875 72.5429 8.785L72.3029 8.755V8.245L74.5829 7.9H74.8229V14.38C74.8229 14.89 74.9879 14.995 75.6629 15.07L76.0529 15.115V15.625L73.6529 16.15H73.4429ZM79.6365 7.9V10.27C80.6115 8.53 80.9715 7.9 81.9015 7.9C82.1565 7.9 82.3515 7.99 82.4565 8.11V9.445H82.1415C81.2115 9.445 80.6115 9.58 79.6365 10.75V14.56C79.6365 15.31 80.0115 15.355 81.0915 15.475V16H77.1015V15.475C77.7615 15.385 78.2565 15.31 78.2565 14.62V9.49L77.1765 8.965V8.65L79.2465 7.9H79.6365ZM89.0822 4.585V14.62C89.0822 15.31 89.5772 15.385 90.2372 15.475V16H86.5322V15.475C87.2072 15.385 87.7022 15.31 87.7022 14.62V6.175L86.6072 5.65V5.335L88.7072 4.585H89.0822ZM94.0394 15.1C94.7444 15.1 95.2544 14.89 95.8844 14.425V11.74L93.7544 12.55C93.1994 12.76 92.8394 13.195 92.8394 13.765C92.8394 14.62 93.2744 15.1 94.0394 15.1ZM97.2794 10.42C97.2794 10.915 97.2344 13.51 97.2344 14.14C97.2344 14.8 97.4894 15.16 97.9244 15.16C98.0594 15.16 98.4044 15.13 98.6294 15.07L98.7044 15.43C98.1944 15.94 97.7294 16.15 97.2044 16.15C96.4394 16.15 96.0644 15.595 95.9294 14.785C95.3894 15.4 94.5344 16.15 93.4244 16.15C92.0594 16.15 91.4294 15.22 91.4294 14.125C91.4294 12.73 92.5394 12.25 93.5144 11.905L95.8844 11.05V10.315C95.8844 9.415 95.5694 8.62 94.3994 8.62C93.5894 8.62 93.1694 8.965 93.1694 9.73C93.1694 9.985 93.1994 10.21 93.2744 10.51L92.1494 10.66C91.9394 10.45 91.8344 10.21 91.8344 9.85C91.8344 8.62 93.0494 7.9 94.6844 7.9C96.4094 7.9 97.2794 8.785 97.2794 10.42ZM101.482 6.34V8.05H103.777V8.845H101.482V14.095C101.482 14.92 101.842 15.205 102.667 15.205C103.117 15.205 103.642 15.07 104.032 14.875L104.182 15.205C103.672 15.76 102.892 16.15 101.902 16.15C100.867 16.15 100.117 15.655 100.117 14.38V8.845H99.0067V8.395C99.7717 7.915 100.432 7.3 101.092 6.34H101.482ZM108.46 7.9C110.44 7.9 111.475 9.28 111.475 11.245V11.71H106.105C106.105 13.675 107.155 15.01 108.85 15.01C109.975 15.01 110.68 14.455 111.235 13.72L111.49 13.855C111.13 15.19 110.02 16.15 108.34 16.15C106.15 16.15 104.86 14.425 104.86 12.28C104.86 9.655 106.39 7.9 108.46 7.9ZM108.235 8.635C107.05 8.635 106.285 9.745 106.165 10.99H110.095C110.095 9.55 109.465 8.635 108.235 8.635ZM115.649 16.15C114.674 16.15 113.669 15.97 112.934 15.415L112.844 13.42H113.399C113.699 14.695 114.434 15.475 115.664 15.475C116.624 15.475 117.194 15.025 117.194 14.245C117.194 13.27 116.504 12.94 115.154 12.52C113.819 12.1 112.934 11.53 112.934 10.165C112.934 8.845 113.939 7.9 115.514 7.9C116.519 7.9 117.329 8.155 117.989 8.53V10.39H117.419C117.209 9.19 116.534 8.59 115.469 8.59C114.659 8.59 114.164 9.1 114.164 9.775C114.164 10.6 114.779 11.035 115.934 11.395C117.434 11.86 118.439 12.31 118.439 13.825C118.439 15.145 117.374 16.15 115.649 16.15ZM121.784 6.34V8.05H124.079V8.845H121.784V14.095C121.784 14.92 122.144 15.205 122.969 15.205C123.419 15.205 123.944 15.07 124.334 14.875L124.484 15.205C123.974 15.76 123.194 16.15 122.204 16.15C121.169 16.15 120.419 15.655 120.419 14.38V8.845H119.309V8.395C120.074 7.915 120.734 7.3 121.394 6.34H121.784ZM130.045 14.32V7C129.445 6.295 129.25 6.07 128.515 6.055V5.47H131.08L137.32 13.375V7.15C137.32 6.235 136.795 6.085 135.79 6.055V5.47H139.72V6.055C138.715 6.085 138.19 6.235 138.19 7.15V16H137.575L130.915 7.675V14.32C130.915 15.235 131.44 15.385 132.445 15.415V16H128.515V15.415C129.52 15.385 130.045 15.235 130.045 14.32ZM144.071 7.9C146.051 7.9 147.086 9.28 147.086 11.245V11.71H141.716C141.716 13.675 142.766 15.01 144.461 15.01C145.586 15.01 146.291 14.455 146.846 13.72L147.101 13.855C146.741 15.19 145.631 16.15 143.951 16.15C141.761 16.15 140.471 14.425 140.471 12.28C140.471 9.655 142.001 7.9 144.071 7.9ZM143.846 8.635C142.661 8.635 141.896 9.745 141.776 10.99H145.706C145.706 9.55 145.076 8.635 143.846 8.635ZM156.078 13.945L157.668 9.52C157.728 9.34 157.758 9.235 157.758 9.115C157.758 8.755 157.473 8.68 156.708 8.575V8.05H159.528V8.575C158.853 8.815 158.778 8.845 158.658 9.175L156.048 16.15H155.673L153.693 10.855L151.683 16.15H151.323L148.638 9.175C148.518 8.845 148.443 8.8 147.783 8.575V8.05H151.173V8.575C150.423 8.68 150.123 8.755 150.123 9.115C150.123 9.235 150.168 9.4 150.228 9.565L151.818 13.915L153.303 9.895L153.048 9.175C152.928 8.845 152.838 8.8 152.163 8.575V8.05H155.508V8.575C154.728 8.68 154.443 8.755 154.443 9.115C154.443 9.235 154.488 9.4 154.548 9.565L156.078 13.945ZM163.007 16.15C162.032 16.15 161.027 15.97 160.292 15.415L160.202 13.42H160.757C161.057 14.695 161.792 15.475 163.022 15.475C163.982 15.475 164.552 15.025 164.552 14.245C164.552 13.27 163.862 12.94 162.512 12.52C161.177 12.1 160.292 11.53 160.292 10.165C160.292 8.845 161.297 7.9 162.872 7.9C163.877 7.9 164.687 8.155 165.347 8.53V10.39H164.777C164.567 9.19 163.892 8.59 162.827 8.59C162.017 8.59 161.522 9.1 161.522 9.775C161.522 10.6 162.137 11.035 163.292 11.395C164.792 11.86 165.797 12.31 165.797 13.825C165.797 15.145 164.732 16.15 163.007 16.15ZM170.159 13.24C170.159 11.68 171.194 10.81 172.559 10.24C172.124 9.715 171.569 8.905 171.569 7.855C171.569 6.415 172.649 5.32 174.239 5.32C175.949 5.32 176.849 6.235 176.849 7.495C176.849 8.695 175.814 9.58 174.254 10.21L177.074 13.435C177.329 12.895 177.464 12.295 177.464 11.65C177.464 10.9 177.284 10.63 176.699 10.63V10.045H179.699V10.63C178.514 10.63 178.364 10.825 178.214 11.71C178.079 12.535 177.839 13.285 177.494 13.915L178.109 14.605C178.589 15.145 179.069 15.43 179.699 15.43V16H177.884C177.479 15.805 177.134 15.475 176.684 14.995C175.949 15.73 174.944 16.15 173.684 16.15C171.944 16.15 170.159 15.235 170.159 13.24ZM173.984 15.4C174.914 15.4 175.694 15.07 176.279 14.53L172.949 10.675C172.079 11.065 171.629 11.935 171.629 13.03C171.629 14.47 172.679 15.4 173.984 15.4ZM172.709 7.45C172.709 8.365 173.249 9.07 173.804 9.7L173.864 9.775C175.034 9.295 175.634 8.665 175.634 7.495C175.634 6.565 175.094 5.95 174.164 5.95C173.294 5.95 172.709 6.49 172.709 7.45ZM186.614 7.9V14.62C186.614 15.31 187.094 15.385 187.769 15.475V16H184.079V15.475C184.739 15.385 185.234 15.31 185.234 14.62V9.49L184.154 8.965V8.65L186.239 7.9H186.614ZM185.864 6.835C185.324 6.835 184.889 6.385 184.889 5.83C184.889 5.275 185.324 4.825 185.864 4.825C186.404 4.825 186.839 5.275 186.839 5.83C186.839 6.385 186.404 6.835 185.864 6.835ZM195.033 14.62V10.465C195.033 9.385 194.598 9.01 193.638 9.01C192.858 9.01 192.003 9.355 191.433 9.805V14.62C191.433 15.31 191.913 15.385 192.588 15.475V16H188.898V15.475C189.558 15.385 190.053 15.31 190.053 14.62V9.49L188.973 8.965V8.65L191.058 7.9H191.433V9.37C192.168 8.65 193.068 7.9 194.313 7.9C195.618 7.9 196.413 8.605 196.413 10.36V14.62C196.413 15.31 196.908 15.385 197.583 15.475V16H193.878V15.475C194.538 15.385 195.033 15.31 195.033 14.62ZM201.357 16.15C200.382 16.15 199.377 15.97 198.642 15.415L198.552 13.42H199.107C199.407 14.695 200.142 15.475 201.372 15.475C202.332 15.475 202.902 15.025 202.902 14.245C202.902 13.27 202.212 12.94 200.862 12.52C199.527 12.1 198.642 11.53 198.642 10.165C198.642 8.845 199.647 7.9 201.222 7.9C202.227 7.9 203.037 8.155 203.697 8.53V10.39H203.127C202.917 9.19 202.242 8.59 201.177 8.59C200.367 8.59 199.872 9.1 199.872 9.775C199.872 10.6 200.487 11.035 201.642 11.395C203.142 11.86 204.147 12.31 204.147 13.825C204.147 15.145 203.082 16.15 201.357 16.15ZM207.854 7.9V14.62C207.854 15.31 208.334 15.385 209.009 15.475V16H205.319V15.475C205.979 15.385 206.474 15.31 206.474 14.62V9.49L205.394 8.965V8.65L207.479 7.9H207.854ZM207.104 6.835C206.564 6.835 206.129 6.385 206.129 5.83C206.129 5.275 206.564 4.825 207.104 4.825C207.644 4.825 208.079 5.275 208.079 5.83C208.079 6.385 207.644 6.835 207.104 6.835ZM213.364 13.165C212.884 13.165 212.419 13.09 211.999 12.94C211.519 13.435 211.369 13.705 211.369 14.05C211.369 14.395 211.564 14.53 211.924 14.53H215.314C216.664 14.53 217.474 14.995 217.474 16.285C217.474 17.965 215.644 19.105 213.094 19.105C210.994 19.105 209.764 18.49 209.764 17.245C209.764 16.39 210.454 16.015 211.159 15.685C210.574 15.475 210.304 15.13 210.304 14.59C210.304 13.855 210.904 13.27 211.684 12.79C210.889 12.385 210.364 11.65 210.364 10.615C210.364 8.935 211.654 7.9 213.394 7.9C213.919 7.9 214.369 8.02 214.729 8.17L217.444 7.975V8.995H216.889L215.344 8.65V8.725C215.929 9.1 216.379 9.745 216.379 10.54C216.379 12.13 215.179 13.165 213.364 13.165ZM215.044 15.82H211.384C211.099 16.12 210.994 16.45 210.994 16.78C210.994 17.935 211.999 18.385 213.379 18.385C215.104 18.385 216.304 17.8 216.304 16.705C216.304 15.97 215.839 15.82 215.044 15.82ZM213.514 12.58C214.534 12.58 215.044 11.785 215.044 10.66C215.044 9.49 214.384 8.53 213.259 8.53C212.239 8.53 211.744 9.325 211.744 10.45C211.744 11.605 212.374 12.58 213.514 12.58ZM220.728 4.585V9.37C221.463 8.65 222.348 7.9 223.593 7.9C224.898 7.9 225.693 8.605 225.693 10.36V14.62C225.693 15.31 226.188 15.385 226.863 15.475V16H223.158V15.475C223.818 15.385 224.313 15.31 224.313 14.62V10.465C224.313 9.385 223.878 9.01 222.918 9.01C222.138 9.01 221.313 9.355 220.728 9.805V14.62C220.728 15.31 221.223 15.385 221.883 15.475V16H218.178V15.475C218.853 15.385 219.348 15.31 219.348 14.62V6.175L218.253 5.65V5.335L220.353 4.585H220.728ZM229.934 6.34V8.05H232.229V8.845H229.934V14.095C229.934 14.92 230.294 15.205 231.119 15.205C231.569 15.205 232.094 15.07 232.484 14.875L232.634 15.205C232.124 15.76 231.344 16.15 230.354 16.15C229.319 16.15 228.569 15.655 228.569 14.38V8.845H227.459V8.395C228.224 7.915 228.884 7.3 229.544 6.34H229.934ZM236.264 16.15C235.289 16.15 234.284 15.97 233.549 15.415L233.459 13.42H234.014C234.314 14.695 235.049 15.475 236.279 15.475C237.239 15.475 237.809 15.025 237.809 14.245C237.809 13.27 237.119 12.94 235.769 12.52C234.434 12.1 233.549 11.53 233.549 10.165C233.549 8.845 234.554 7.9 236.129 7.9C237.134 7.9 237.944 8.155 238.604 8.53V10.39H238.034C237.824 9.19 237.149 8.59 236.084 8.59C235.274 8.59 234.779 9.1 234.779 9.775C234.779 10.6 235.394 11.035 236.549 11.395C238.049 11.86 239.054 12.31 239.054 13.825C239.054 15.145 237.989 16.15 236.264 16.15Z" fill="#8B3C50"/>
<rect y="24" width="241" height="2" fill="#8B3C50"/>
</svg>
